<svg width="229" height="133" viewBox="0 0 229 133" fill="none" xmlns="http://www.w3.org/2000/svg">
<path d="M106.381 27.8297H68.2575L65.8439 37.743H103.967L98.3755 61.1255H60.2504L54.659 84.7606H22L42.332 0H113.114L106.381 27.8297Z" fill="#896CFE"/>
<path d="M177.047 0C191.153 0 195.348 0.762084 199.54 3.68515C202.718 5.9714 204.37 9.91128 204.37 14.9953C204.37 23.1277 200.177 32.279 194.331 36.5989C191.281 38.8851 187.343 40.4114 180.987 41.8082L180.86 42.3155C186.833 43.205 188.103 43.5871 190.136 44.7313C193.822 47.0175 195.728 50.4479 195.728 55.4067C195.728 66.0822 189.247 77.1376 180.35 81.5848C175.776 83.7458 169.55 84.7626 159.129 84.7626H103.85L124.182 0.00208755H177.047V0Z" fill="#896CFE"/>
<path d="M171.954 41.0133C168.893 40.5247 166.224 38.7312 164.598 36.1484L160.42 44.9239C163.205 47.4691 166.707 49.1978 170.546 49.8117C172.977 50.2 175.261 48.5464 175.649 46.1161C176.04 43.6858 174.384 41.4016 171.954 41.0133Z" fill="#E2F163"/>
<path d="M139.018 59.2777C140.717 58.6451 142.438 57.7327 144.052 56.4758C143.334 56.0122 142.684 55.5195 142.108 54.9954C140.77 53.7803 139.818 52.4252 139.181 51.0827C138.922 50.5378 138.717 49.9991 138.55 49.4688C138.12 49.8007 137.68 50.0847 137.222 50.3311C136.264 50.8468 135.239 51.1996 134.182 51.4209C133.128 51.6423 132.046 51.732 131.027 51.732C129.578 51.732 128.257 51.5504 127.336 51.3708C126.875 51.2811 126.516 51.1934 126.286 51.1328C126.171 51.1036 126.092 51.0785 126.046 51.066L126.008 51.0556H126.006C123.672 50.3144 121.173 51.5963 120.417 53.9306C119.659 56.2711 120.945 58.7829 123.286 59.5408C123.423 59.5846 124.273 59.854 125.63 60.1191C126.987 60.3822 128.85 60.6432 131.025 60.6453C132.387 60.6453 133.869 60.543 135.427 60.259C136.594 60.0461 137.801 59.7329 139.018 59.2777Z" fill="#E2F163"/>
<path d="M172.434 70.1369H168.033C168.108 69.8467 168.156 69.5461 168.173 69.235C168.177 69.1661 168.187 68.9259 168.187 68.5439C168.187 67.6482 168.131 65.9716 167.768 63.8586C167.494 62.2739 167.047 60.4449 166.298 58.5198C165.736 57.0771 165.001 55.5801 164.032 54.1102C163.306 53.0099 162.448 51.9241 161.439 50.9032C159.927 49.3706 158.069 47.9822 155.867 46.8986C155.846 46.8881 155.823 46.8777 155.8 46.8672L162.953 31.8427L163.287 31.0472C164.713 27.6418 163.107 23.727 159.702 22.301C159.224 22.1005 158.735 21.9627 158.245 21.8792C157.825 21.7226 157.393 21.6328 156.961 21.6057C156.858 21.5848 156.75 21.5639 156.631 21.541C155.651 21.3572 154.15 21.1484 152.277 21.1484C149.782 21.1464 146.605 21.5222 143.078 22.7937C139.552 24.0611 135.697 26.2304 131.866 29.6922C130.039 31.3395 129.895 34.1582 131.542 35.9851C133.19 37.812 136.008 37.9561 137.835 36.3087C140.852 33.5903 143.652 32.0619 146.099 31.1767C147.049 30.8342 147.947 30.592 148.786 30.4208L142.585 43.5057C142.581 43.5203 142.577 43.5391 142.571 43.5663C142.554 43.6435 142.527 43.773 142.5 43.9442C142.445 44.2887 142.387 44.8002 142.387 45.412C142.387 46.101 142.46 46.9111 142.683 47.7504C142.907 48.5919 143.272 49.4583 143.869 50.3081C144.268 50.8739 144.771 51.4356 145.421 51.9763C146.133 52.5693 147.028 53.1393 148.16 53.6508C149.258 53.868 150.219 54.1624 151.069 54.5069C152.052 54.9078 152.887 55.3796 153.618 55.9037C154.894 56.8203 155.864 57.8997 156.641 59.0898C157.222 59.9814 157.685 60.9355 158.048 61.8918C158.593 63.3262 158.911 64.771 159.08 65.9695C159.251 67.1658 159.276 68.1117 159.276 68.5459C159.276 68.6545 159.274 68.7297 159.274 68.7714L159.272 68.8049H159.274C159.253 69.2663 159.303 69.7131 159.414 70.139H136.823C135.9 70.139 135.152 70.8865 135.152 71.8093C135.152 72.7322 135.9 73.4797 136.823 73.4797H172.436C173.359 73.4797 174.106 72.7322 174.106 71.8093C174.104 70.8844 173.357 70.1369 172.434 70.1369Z" fill="#E2F163"/>
<path d="M128.72 70.1328H124.697C123.774 70.1328 123.026 70.8803 123.026 71.8031C123.026 72.726 123.774 73.4735 124.697 73.4735H128.72C129.643 73.4735 130.39 72.726 130.39 71.8031C130.39 70.8803 129.643 70.1328 128.72 70.1328Z" fill="#E2F163"/>
<path d="M163.719 21.3738C166.655 21.3738 169.035 18.9938 169.035 16.058C169.035 13.1222 166.655 10.7422 163.719 10.7422C160.783 10.7422 158.403 13.1222 158.403 16.058C158.403 18.9938 160.783 21.3738 163.719 21.3738Z" fill="#E2F163"/>
<path d="M33.4479 93.8525L31.9889 102.282H16.751L15.5623 108.982H26.7475L25.3426 117.034H14.1574L11.5096 131.947H0.864727L7.61911 93.8525H33.4479ZM48.4992 93.8525L41.7988 131.947H31.1539L37.9083 93.8525H48.4992ZM83.2231 93.8525L81.7101 102.282H71.6055L66.3641 131.947H55.7192L60.9606 102.282H50.9101L52.4231 93.8525H83.2231ZM111.89 103.849C111.493 106.082 110.557 107.938 109.08 109.415C107.639 110.856 105.874 111.9 103.784 112.549C105.549 112.837 106.99 113.701 108.107 115.142C109.224 116.547 109.782 118.222 109.782 120.168C109.782 120.744 109.728 121.302 109.62 121.843C109.296 123.752 108.503 125.481 107.242 127.03C106.018 128.543 104.397 129.75 102.379 130.65C100.362 131.515 98.0926 131.947 95.5709 131.947H81.5218L88.2221 94.2848H101.731C105.117 94.2848 107.675 95.0053 109.404 96.4462C111.169 97.8871 112.052 99.7604 112.052 102.066C112.052 102.642 111.998 103.237 111.89 103.849ZM106.81 104.443C106.882 104.119 106.918 103.669 106.918 103.093C106.918 101.544 106.378 100.337 105.297 99.4722C104.217 98.6076 102.65 98.1753 100.596 98.1753H92.4369L90.2214 110.657H98.4888C100.758 110.657 102.632 110.117 104.108 109.036C105.585 107.92 106.486 106.389 106.81 104.443ZM104.757 121.356C104.865 120.852 104.919 120.384 104.919 119.951C104.919 118.294 104.307 116.98 103.082 116.007C101.857 115.034 100.182 114.548 98.0565 114.548H89.519L87.1414 128.057H95.8411C98.2547 128.057 100.254 127.462 101.839 126.274C103.424 125.085 104.397 123.446 104.757 121.356ZM131.844 132.326C128.71 132.326 125.954 131.677 123.576 130.38C121.199 129.047 119.344 127.192 118.011 124.815C116.714 122.437 116.065 119.717 116.065 116.655C116.065 112.405 117.02 108.55 118.929 105.092C120.875 101.598 123.54 98.8598 126.926 96.8785C130.313 94.8612 134.095 93.8525 138.274 93.8525C141.444 93.8525 144.218 94.519 146.595 95.8518C149.009 97.1487 150.864 98.9859 152.161 101.363C153.458 103.705 154.106 106.407 154.106 109.469C154.106 113.755 153.133 117.646 151.188 121.14C149.279 124.598 146.631 127.336 143.245 129.354C139.859 131.335 136.058 132.326 131.844 132.326ZM132.546 127.895C135.716 127.895 138.544 127.084 141.03 125.463C143.551 123.806 145.515 121.591 146.919 118.817C148.324 116.043 149.027 113.035 149.027 109.793C149.027 106.227 148 103.417 145.947 101.363C143.893 99.3101 141.102 98.2834 137.571 98.2834C134.401 98.2834 131.555 99.1119 129.034 100.769C126.548 102.39 124.603 104.587 123.198 107.361C121.829 110.099 121.145 113.089 121.145 116.331C121.145 119.897 122.153 122.725 124.171 124.815C126.224 126.868 129.016 127.895 132.546 127.895ZM175.565 94.2848C180.933 94.2848 185.093 95.5817 188.047 98.1753C191.037 100.769 192.532 104.371 192.532 108.982C192.532 110.423 192.406 111.828 192.154 113.197C191.47 117.052 190.065 120.402 187.939 123.248C185.85 126.057 183.166 128.219 179.888 129.732C176.646 131.209 172.972 131.947 168.865 131.947H157.139L163.84 94.2848H175.565ZM169.567 128.165C174.394 128.165 178.321 126.85 181.347 124.22C184.373 121.555 186.3 117.88 187.129 113.197C187.345 111.9 187.453 110.675 187.453 109.523C187.453 105.956 186.39 103.201 184.265 101.255C182.139 99.274 179.005 98.2834 174.863 98.2834H168.054L162.759 128.165H169.567ZM228.413 94.2848L211.987 117.736L209.447 131.947H204.53L207.069 117.736L198.856 94.2848H204.368L210.257 113.251L222.848 94.2848H228.413Z" fill="#E2F163"/>
</svg>